<?xml version="1.0" encoding="UTF-8" standalone="no"?>
<!-- Created with Inkscape (http://www.inkscape.org/) -->
<svg
   xmlns:svg="http://www.w3.org/2000/svg"
   xmlns="http://www.w3.org/2000/svg"
   width="800"
   height="499.495"
   viewBox="0 0 800 499.495"
   id="Layer_1"
   xml:space="preserve"><defs
   id="defs20" />
<path
   d="M 615.462,407.23 C 615.462,356.261 656.766,314.96 707.735,314.96 C 758.695,314.96 800,356.26 800,407.23 C 800,458.208 758.695,499.495 707.735,499.495 C 656.766,499.495 615.462,458.208 615.462,407.23"
   style="fill:#0066b3"
   id="path3" />
<path
   d="M 298.236,92.264 C 298.236,41.313 339.531,0 390.51,0 C 441.461,0 482.765,41.313 482.765,92.264 C 482.765,143.215 441.461,184.533 390.51,184.533 C 339.531,184.533 298.236,143.215 298.236,92.264"
   style="fill:#0066b3"
   id="path5" />
<path
   d="M 38.107,479.619 L 3.868,479.619 L 3.868,351.01 L 38.108,345.663 L 38.108,479.619 M 42.205,312.655 C 42.04,318.696 39.973,323.707 35.995,327.708 C 32.017,331.649 27.001,333.726 20.984,333.877 C 15.067,333.726 10.134,331.649 6.193,327.708 C 2.206,323.707 0.166,318.696 0.001,312.655 C 0.166,306.624 2.279,301.621 6.34,297.62 C 10.401,293.651 15.435,291.571 21.489,291.442 C 27.396,291.571 32.293,293.651 36.17,297.62 C 40.037,301.621 42.067,306.624 42.205,312.655 z "
   style="fill:#0066b3"
   id="path7" />
<path
   d="M 149.205,476.816 C 139.421,480.812 130.124,482.76 121.341,482.682 C 112.512,482.599 104.961,480.84 98.722,477.418 C 92.448,473.982 88.24,469.343 86.054,463.504 C 85.08,460.955 84.419,458.382 84.125,455.787 C 83.849,453.219 83.721,449.044 83.748,443.307 L 83.748,372.214 L 70.703,372.214 L 70.703,348.723 L 83.748,348.723 C 83.721,342.449 83.767,336.89 83.923,332.09 C 84.042,327.294 84.419,322.545 85.044,317.79 L 119.798,309.072 C 119.146,315.168 118.659,321.603 118.3,328.402 C 117.932,335.26 117.758,342.007 117.758,348.723 L 148.433,348.723 L 139.742,372.214 L 117.758,372.214 L 117.758,437.933 C 117.648,446.082 118.64,451.667 120.771,454.653 C 122.884,457.662 126.816,459.091 132.595,458.911 C 134.065,458.911 135.719,458.723 137.574,458.309 C 139.429,457.895 141.864,457.22 144.859,456.333 L 149.205,476.816"
   style="fill:#0066b3"
   id="path9" />
<path
   d="M 242.747,399.655 L 242.747,398.121 C 242.774,393.371 242.443,389.476 241.847,386.467 C 241.231,383.454 240.175,380.785 238.641,378.419 C 235.416,373.302 230.391,370.766 223.565,370.766 C 217.014,370.812 211.961,373.284 208.461,378.13 C 204.924,383.013 203.142,390.022 203.114,399.154 L 203.114,399.655 L 242.747,399.655 M 278.291,424.699 L 202.591,424.699 L 202.591,425.733 C 202.646,435.884 205.062,443.721 209.803,449.178 C 214.552,454.621 221.341,457.377 230.216,457.428 C 241.947,457.428 253.028,453.092 263.463,444.396 L 276.738,464.851 C 261.966,477.023 245.521,483.101 227.414,482.995 C 208.378,482.733 193.385,476.61 182.379,464.566 C 171.373,452.527 165.76,436.091 165.53,415.251 C 165.493,403.597 166.77,393.606 169.388,385.302 C 171.988,376.919 176.187,369.647 181.892,363.372 C 192.291,351.452 206.017,345.563 223.068,345.697 C 230.712,345.743 237.85,346.965 244.455,349.353 C 251.089,351.76 256.582,355.141 260.9,359.496 C 266.88,365.545 271.291,373.23 274.101,382.468 C 276.913,391.765 278.309,403.185 278.29,416.777 C 278.291,419.665 278.291,422.338 278.291,424.699 z "
   style="fill:#0066b3"
   id="path11" />
<path
   d="M 366.568,479.1 C 360.514,481.461 353.697,482.655 346.109,482.683 C 338.722,482.628 332.329,481.02 326.972,477.86 C 321.588,474.69 317.822,470.354 315.681,464.8 C 314.836,462.673 314.202,460.542 313.743,458.364 C 313.311,456.182 313.009,453.325 312.852,449.825 C 312.696,446.316 312.604,441.488 312.604,435.392 L 312.604,337.725 C 312.604,329.314 312.494,322.098 312.2,315.993 C 311.915,309.971 311.465,304.055 310.812,298.345 L 345.851,290.435 C 346.485,293.802 346.963,298.092 347.22,303.2 C 347.524,308.317 347.643,315.4 347.643,324.431 L 347.643,426.44 C 347.624,433.813 347.679,439.394 347.789,443.201 C 347.891,446.963 348.102,449.747 348.441,451.432 C 348.772,453.118 349.259,454.492 349.939,455.58 C 351.473,457.923 353.77,459.136 356.847,459.163 C 357.849,459.241 359.153,459.09 360.678,458.621 L 366.568,479.1"
   style="fill:#0066b3"
   id="path13" />
<path
   d="M 444.905,479.1 C 438.851,481.461 432.025,482.655 424.446,482.683 C 417.042,482.628 410.675,481.02 405.282,477.86 C 399.935,474.69 396.169,470.354 394.019,464.8 C 393.165,462.673 392.521,460.542 392.081,458.364 C 391.64,456.182 391.346,453.325 391.181,449.825 C 391.025,446.316 390.923,441.488 390.952,435.392 L 390.952,337.725 C 390.952,329.314 390.805,322.098 390.538,315.993 C 390.254,309.971 389.794,304.055 389.142,298.345 L 424.191,290.435 C 424.825,293.802 425.284,298.092 425.559,303.2 C 425.835,308.317 425.963,315.4 425.963,324.431 L 425.963,426.44 C 425.963,433.813 426,439.394 426.129,443.201 C 426.211,446.963 426.441,449.747 426.772,451.432 C 427.093,453.118 427.599,454.492 428.279,455.58 C 429.822,457.923 432.119,459.136 435.178,459.163 C 436.207,459.241 437.475,459.09 438.999,458.621 L 444.905,479.1"
   style="fill:#0066b3"
   id="path15" />
<path
   d="M 533.624,422.338 L 532.081,422.338 C 520.367,422.159 512.062,423.56 507.184,426.44 C 502.352,429.315 499.973,434.611 500.129,442.269 C 500.221,447.464 501.645,451.594 504.409,454.681 C 507.175,457.736 510.785,459.325 515.214,459.403 C 521.819,459.196 527.8,456.234 533.128,450.446 L 533.624,422.338 M 579.412,465.264 L 561.24,486.261 C 557.207,484.548 553.559,482.32 550.299,479.573 C 547.046,476.817 544.557,473.758 542.82,470.409 C 540.183,473.082 537.547,475.365 534.901,477.313 C 528.286,481.98 519.522,484.369 508.571,484.447 C 493.955,484.369 482.793,480.813 475.139,473.758 C 467.487,466.72 463.618,456.647 463.573,443.514 C 463.683,413.201 484.657,398.2 526.458,398.562 C 528.893,398.488 531.446,398.594 534.13,398.796 L 534.13,393.417 C 534.268,386.256 533.293,381.199 531.144,378.263 C 529.031,375.309 524.906,373.909 518.796,374.01 C 507.726,374.217 495.112,379.146 480.946,388.828 L 466.376,364.271 C 469.71,362.176 472.953,360.302 476.132,358.722 C 479.302,357.115 483.133,355.401 487.588,353.559 C 493.918,350.876 500,348.938 505.788,347.716 C 511.575,346.466 517.455,345.869 523.399,345.869 C 534.441,345.929 543.601,347.895 550.822,351.79 C 558.034,355.681 562.967,361.308 565.576,368.639 C 566.476,371.074 567.12,373.908 567.496,377.123 C 567.882,380.339 568.02,385.346 567.882,392.148 L 567.12,436.117 C 566.789,443.067 567.368,448.63 568.838,452.805 C 570.299,457.014 573.817,461.144 579.412,465.264 z "
   style="fill:#0066b3"
   id="path17" />
</svg>